{"title":"Traffic 2016 Hindi DvDScr (1CD) x264 AAC - Hon3y","uid":14611788,"size":738057623,"categoryP":"video","categoryS":"movies","magnet":"?xt=urn:btih:fb8728dec23f6485985c696bfb2fe68fd646e7e5&amp;dn=Traffic+2016+Hindi+DvDScr+%281CD%29+x264+AAC+-+Hon3y&amp;tr=udp%3A%2F%2Ftracker.leechers-paradise.org%3A6969&amp;tr=udp%3A%2F%2Fzer0day.ch%3A1337&amp;tr=udp%3A%2F%2Fopen.demonii.com%3A1337&amp;tr=udp%3A%2F%2Ftracker.coppersurfer.tk%3A6969&amp;tr=udp%3A%2F%2Fexodus.desync.com%3A6969","seeders":1,"leechers":0,"uploader":"CDRiPD","files":3,"time":1463158636,"description":"Traffic 2016 Hindi DvDScr (1CD) x264 AAC - Hon3y\r\n\r\n\r\n\r\nFormat                                   : Matroska\r\nFormat version                           : Version 4 / Version 2\r\nFile size                                : 699 MiB\r\nDuration                                 : 1h 37mn\r\nOverall bit rate                         : 1 001 Kbps\r\n\r\nVideo\r\nID                                       : 1\r\nFormat                                   : AVC\r\nFormat/Info                              : Advanced Video Codec\r\nFormat profile                           :   \r\nFormat settings, CABAC                   : Yes\r\nFormat settings, ReFrames                : 5 frames\r\nCodec ID                                 : V_MPEG4/ISO/AVC\r\nDuration                                 : 1h 37mn\r\nBit rate                                 : 903 Kbps\r\nWidth                                    : 640 pixels\r\nHeight                                   : 272 pixels\r\nDisplay aspect ratio                     : 2.35:1\r\nFrame rate mode                          : Constant\r\nFrame rate                               : 23.976 (24000/1001) fps\r\nColor space                              : YUV\r\nChroma subsampling                       : 4:2:0\r\nBit depth                                : 8 bits\r\nScan type                                : Progressive\r\nBits/(Pixel*Frame)                       : 0.216\r\nStream size                              : 630 MiB (90%)\r\nWriting library                          : x264 core 148 r2638 7599210\r\n\r\nAudio\r\nID                                       : 2\r\nFormat                                   : AAC\r\nFormat/Info                              : Advanced Audio Codec\r\nFormat profile                           : LC\r\nCodec ID                                 : A_AAC\r\nDuration                                 : 1h 37mn\r\nBit rate                                 : 96.0 Kbps\r\nChannel(s)                               : 2 channels\r\nChannel positions                        : Front: L R\r\nSampling rate                            : 44.1 KHz\r\nFrame rate                               : 43.066 fps (1024 spf)\r\nCompression mode                         : Lossy\r\nDelay relative to video                  : 10ms\r\nStream size                              : 67.0 MiB (10%)\r\nLanguage                                 : Hindi\r\n\r\n\r\nScreens:\r\n\r\n \nhttps://ititli.com/XNd \nhttps://ititli.com/XN0 \nhttps://ititli.com/XNA \nhttps://ititli.com/XNl \nhttps://ititli.com/XNm \nhttps://ititli.com/XNx \nhttps://ititli.com/XN7 \nhttps://ititli.com/XNC \nhttps://ititli.com/XNF","torrent":{"xt":"urn:btih:fb8728dec23f6485985c696bfb2fe68fd646e7e5","amp;dn":"Traffic+2016+Hindi+DvDScr+%281CD%29+x264+AAC+-+Hon3y","amp;tr":["udp%3A%2F%2Ftracker.leechers-paradise.org%3A6969","udp%3A%2F%2Fzer0day.ch%3A1337","udp%3A%2F%2Fopen.demonii.com%3A1337","udp%3A%2F%2Ftracker.coppersurfer.tk%3A6969","udp%3A%2F%2Fexodus.desync.com%3A6969"],"infoHash":"fb8728dec23f6485985c696bfb2fe68fd646e7e5","infoHashBuffer":{"type":"Buffer","data":[251,135,40,222,194,63,100,133,152,92,105,107,251,47,230,143,214,70,231,229]},"announce":[],"urlList":[]}}